<svg width="256" height="256" viewBox="0 0 256 256" fill="none" xmlns="http://www.w3.org/2000/svg">
<g clip-path="url(#clip0_685_6345)">
<path fill-rule="evenodd" clip-rule="evenodd" d="M81.5 115.25H71.25V120.5H81.5V115.25ZM76.25 125.75H67.25V135.5H76.25V125.75ZM86.5 132.25H97V143.5H107.5V148.5H112.75V158.25H122.25V168.25H186V183.5H174.25V188.5H127.5V183.5H111.5V173.5H101.75V163.75H96.75V158.75H91.5V143.5H86.5V132.25Z" fill="#9CDAE0"/>
<path fill-rule="evenodd" clip-rule="evenodd" d="M106.75 101.25H220V148V149.25V153.25H214.5V158.75V163.5H209.25V168.25H204V173.75H198.75V178.75H156.75V173.75H142.75V168.25H127.5V163.5H122V158.75H106.75V149.25V147V101.25Z" fill="#B7E2F4"/>
<path fill-rule="evenodd" clip-rule="evenodd" d="M128.5 62H174.5V66.25H180.75V76.25H193.5V81.25H203.75V91H209.25V114.5H203.75H196.5H193.5H191H180.75H174.5H168H163H147.75H134.5V128.5H96.5V95.25H101.75V81.25H117V76.25H122V71.25H128.5V62ZM71.25 96H76.25V104.75H81.5V111.75H76.25V115.25H71.25V96Z" fill="#D6BFA2"/>
<path fill-rule="evenodd" clip-rule="evenodd" d="M166 66.75H175V71.5H166V66.75ZM166 76.5H152.25V71.5H166V76.5ZM166 76.5H170.75V81.25H180.5V76.25H185.75V81.25H180.75V86H194.75V91.5H190.5V101.25H185.75V91.5H175.5V86H166V81.5V81.25V76.5ZM204.25 91.25H195.25V101H204.25V91.25ZM175.5 105.75H168.25V114.5V114.75V123.5H162.5V128H147.5H142.75V123.5H137.75V114.5H132.75V123.5H127.5V127.75H122V133H127.5V143H132.75V138.25H137.5V148.25H142.75V153.25H147.5H152.25V148H147.5V143H157V148.25H162.25V153.25H166V158.25H175.75V153.25H180.75V158.25H199.75V153.25H209.5H224.5V117.75H202.5V105.75H186.75V114.5H175.5V105.75ZM199.75 123H186.75V123.5V128H182V138L185.25 142.625H187.875V148H199.75V123ZM103.75 113H107V117.75H116.5V119.25H103.75V117.75V113ZM208 101H215V110.5H208V101ZM132.75 76.5H137.75V81.25H132.75V76.5ZM166 86.25H156.75V91H152.25V96H162.25V100.75H175.5V96H170.75V91H166V86.25ZM142.75 86.25H152V91.25H142.75V86.25ZM162.25 101H152.5V110.5H162.25V101Z" fill="#FFFFF3"/>
<path fill-rule="evenodd" clip-rule="evenodd" d="M122 86.25H127.5V91H122V86.25ZM71.25 91H62.75V120.5H71.25V91ZM116.5 117.75H103.75V113H102V117.75H97V127.75H101.75V137.75H116.5V127.75V117.75ZM137.75 91.25H132.5V96H137.75V91.25ZM117.25 143H127.5V148.25H117.25V143ZM157 143H147.5V148H152.25V153H147.5V158.25H156.75V163.25H166V158.25V153H157V148V143ZM137.5 148.25H142.75V153.25H137.5V148.25ZM166.25 163.5H175.5V168.5H166.25V163.5ZM190.5 163.5H185.75V158.25H175.5V163.5H180.75V168.25H190.5V163.5ZM190.5 163.5H204.5V158.25H209.5V153.25H199.75V158.25H190.5V163.5ZM219.75 143.25H215V148H219.75V143.25ZM191 118.25H199.75V123H186.75L187.25 121.875L191 118.25ZM224.5 133H219.75V137.75H224.5V133Z" fill="#FFE295"/>
<path fill-rule="evenodd" clip-rule="evenodd" d="M71.25 98H67V101V105.75H76V101H71.25V98Z" fill="#FFFFF3"/>
<path fill-rule="evenodd" clip-rule="evenodd" d="M116.75 86H111.5L107 90.5V91.25H116.75V86ZM86.75 105.75H91.5V114H86.75V105.75ZM81.5 125.75H86.5V130.75H81.5V125.75ZM106.75 143H101.5V148H106.75V143ZM209.5 158.25H204.5V163.5H209.5V158.25ZM198.75 168.5H193.75V173.75H198.75V168.5ZM186 173.5H193.25V178.5H186V173.5ZM132.5 183.5H127.5V188.5H132.5V183.5ZM119 163.5H127.5V168.5H119V163.5ZM76.25 130.5H71.25V135.5H76.25V130.5Z" fill="#213260"/>
<rect x="16" y="91.5" width="4" height="4.25" fill="#FFF3CC"/>
<rect x="24.75" y="106" width="3.5" height="4.25" fill="#FFF3CC"/>
<rect x="33.25" y="106" width="3" height="4.25" fill="#FFF3CC"/>
<rect x="37.25" y="169" width="8.5" height="4.25" fill="#FFF3CC"/>
<rect x="50.5" y="169" width="35.5" height="4.25" fill="#FFF3CC"/>
<rect x="68" y="159.5" width="3.75" height="4.25" fill="#FFF3CC"/>
<rect x="81.5" y="159" width="10" height="4.75" fill="#FFF3CC"/>
<rect x="16.5" y="169" width="7.75" height="4.25" fill="#FFF3CC"/>
<rect x="29" y="154.75" width="57.5" height="4.25" fill="#FFF3CC"/>
<rect x="37.75" y="106" width="25" height="4.25" fill="#FFF3CC"/>
<rect x="16.5" y="122" width="24.75" height="4.25" fill="#FFF3CC"/>
<rect x="37.25" y="131.25" width="25.5" height="4.25" fill="#FFF3CC"/>
<rect x="33.25" y="145.25" width="48.25" height="4.25" fill="#FFF3CC"/>
<rect x="20.5" y="145.25" width="8" height="4.25" fill="#FFF3CC"/>
<rect x="24.75" y="91.5" width="4" height="4.25" fill="#FFF3CC"/>
<rect x="33" y="91.5" width="4" height="4.25" fill="#FFF3CC"/>
<rect x="16.5" y="106" width="3.5" height="4.25" fill="#FFF3CC"/>
<rect x="41.75" y="91.5" width="21" height="4.25" fill="#FFF3CC"/>
<rect x="79.25" y="91" width="12.25" height="4.75" fill="#FFF3CC"/>
<rect x="20.5" y="131.25" width="3.75" height="4.25" fill="#FFF3CC"/>
<rect x="46" y="122" width="3.75" height="4.25" fill="#FFF3CC"/>
<rect x="16.5" y="154.75" width="3.5" height="4.25" fill="#FFF3CC"/>
<path fill-rule="evenodd" clip-rule="evenodd" d="M132.5 66.75H128V71.5H132.5V66.75ZM117 71.5H122.25V76.5H117V81.25H111.75V76.25H117V71.5ZM96.75 91H101.75V100.75H96.75V117.5H91.75V120.5V125.75V133.75H86.5V125.75H81.5V120.5H86.5V114H91.5V105.75H86.75V101H91.5V95.75H96.75V91ZM101.75 91L106.25 86H101.75V91ZM76.25 120.5H62.75V125.75H76.25V120.5ZM122 123.25H116.5V131H122V123.25ZM106.5 132.75H111.25V137.75H106.5V132.75ZM91.5 144H86.5V149.25H91.5V144ZM91.5 153.5H96.75V158.75H91.5V153.5ZM101.75 163.5H96.75V168.5H101.75V163.5ZM117.25 178.5H122.25V183.5H117.25V178.5ZM116.75 101H111.75V103L106.75 107.75H111.25V110.75H116.75V108.5V107.75V101.25H122.25V96H116.75V101ZM122 110.75H127.5L125.75 114.5H122L116.75 117.75V113H117L122 108.25V110.75ZM147.5 66.75H152.25V71.5H147.5V66.75ZM127.5 81.25H137.75V86.25V91.25H132.5V86.25H127.5V81.25ZM147.5 76.25H142.75V81.25H147.5V76.25ZM152 81.25H156.75V86.25H152V81.25ZM166 76.5H161.5V81.5H166V76.5ZM166 86H175.5V91H166V86ZM180.5 76.25H175.25V81.25H180.5V76.25ZM180.5 76.25H185.75V71.25H180.5V76.25ZM190.5 81.25H185.75V86H190.5V81.25ZM190.5 91.5H195.25V96.25H190.5V91.5ZM185.75 96H180.75V101H185.75V96ZM175.5 105.5H180.5V110.5H175.5V105.5ZM195.5 105.75L190.5 110.5V114.5H195.5V105.75ZM81.5 100.75H76V105.75H81.5V100.75ZM76.25 110H81.5V115.25H72.75V113.5H74.25V112.5H75V111.5H76.25V110ZM76 91H71.25V96H76V91ZM111.25 81.25H106.75V86.25L111.25 81.25ZM132.5 101H128L132.5 96V101ZM137.75 105.75L127.5 116V118.875H132.75V114.5H137.75V105.75Z" fill="#6D6A94"/>
<path fill-rule="evenodd" clip-rule="evenodd" d="M147.5 62H127.5V66.25H122.25V71.5H128V66.75H147.5V62ZM111.75 71.75H117V76.25H111.75V81.25H106.75V86H101.75V81H106.75V76H111.75V71.75ZM96.75 91V86H101.75V91H96.75ZM91.5 95.75V91H96.75V95.75H91.5ZM81.5 120.5V100.5H86.75V95.75H91.5V101H86.75V120.5H81.5ZM96.75 158.75V163.75H91.5V159H86.5V149.5H81.5V131.25H79.25V135.75H76V140.5H67V135.75H62.75V125.75H67.25V135.5H76V130.75H76.25V120.5H81.5V130.75H86.5V149.25H91.5V158.75H96.75ZM96.75 158.75V153.5H101.5V158.75H96.75ZM67 86.25H75.75V91H67.25V96H62.75V91H67V86.25ZM79.25 91H76V100.75H79.25V91ZM127.5 148.25H117.25V153.25H127.5V148.25ZM165.75 168.25H157V173.25H165.75V168.25ZM170.5 173.5H175.75V178.5H170.5V173.5ZM152.25 62H175V66.25H180.75V71.5H175V66.75H152.25V62ZM185.75 71.5H193.25V76H198.5V81H204V86H209.25V90.75H214V95.75H219.25V101H223.75V105.75H224.5V117.5H229.5V138H224.75V153.25H219.75V163.5H214.5V168.75H209.25V173.75H204V178.5H198.75V173.5H204V168.25H209.25V163.25H214.5V152.75H219.75V137.75H224.5V118H219.25V123H214.5V128H209.5V123H205.5V117.75H202.5V111.25V105.75V101H208V105.75H211V110.5H215V106.25V105.75V101H214H209.25V91.25H204V86.25H198.5V81.25H193.25V76.25H185.75V71.5ZM198.75 178.5V183.5H186.25V188.5H174.5V193.25H127.75V188.5H174.25V183.5H186V178.5H198.75ZM192.75 123H186.75V127.75H182V137.75H186.75V139L190.25 142.5H202C203.519 142.5 204.75 141.269 204.75 139.75V137.75H209.25V132.75H205V127.75H192.75V123ZM192.75 127.75V132.75H204.75V137.75H186.75V127.75H192.75ZM117.5 183.5H127.5V188H117.5V183.5ZM117.25 178.5H111.75V173.5H116.75V168.25H111.75V173.5H101.75V168.5H106.75V163.25H101.75V168.5H97V173.5H101.75V178.5H107.75V183.5H117.25V178.5ZM111.75 153H106.75V158.5H111.75V153ZM91.5 143.5H96.75V149H91.5V143.5ZM96.75 117.5H91.75V132.25H97V143H101.75H106.75V148.25H111.25V143V138H116.75V132.75H111.25V137.75H101.75V127.75H111.25V123H101.5V127.75H97V117.75H102V113H107V117.75H116.5V123.25H122V117.75H116.75V113H111.25V107.75H101.75V112.75H96.75V117.5ZM122 105.5H127.5V110.75H122V105.5ZM101.5 96H106.75V101H101.75V105.75H96.5V100.75H101.5V96ZM122 91H127.25V96H122V91ZM137.75 96H132.5V101H137.75V96ZM122.25 76.25H127.5V81.25H122.25V76.25ZM143 71.5H137.75V76.5H143V71.5ZM142.75 118.75V123.25H147V128H152.5H156.75H162.5V119H163.75H166.75H168.25V105.75H166.75V100.75H162.25V96H152.5H147V101H142.75V105.75H137.75V118.75H142.75ZM152.5 101V105.75H156.75V110.5H162.25V101H152.5ZM58.25 115.5H62.75V120.5H58.25V115.5ZM72.25 105.75H67V110.5H72.25V105.75ZM137.5 158.25H132.5V163.5H137.5V158.25ZM137.75 168.5H142.75V173.75H137.75V168.5ZM166.5 178.5H161.5V183.75H166.5V178.5ZM132.5 178.25H137.5V183.5H132.5V178.25ZM127.5 173.5H122.25V178.5H127.5V173.5Z" fill="#010529"/>
<path fill-rule="evenodd" clip-rule="evenodd" d="M192.75 123H199.75V127.75H192.75V123ZM192.75 132.75V127.75H186.75V132.75H192.75ZM192.75 132.75V137.75H199.75V132.75H192.75Z" fill="#FB915F"/>
<rect x="186.75" y="132.75" width="6" height="5" fill="#9C4987"/>
<path fill-rule="evenodd" clip-rule="evenodd" d="M86.5 138.25H91.5V144H86.5V138.25ZM142.75 183.5H160.25V188.5H142.75V183.5ZM156.75 173.75H147.25V178.75H156.75V173.75ZM168.75 183.5H174.25V188.5H168.75V183.5ZM186 178.5H180.5V183.5H186V178.5Z" fill="#59A6C7"/>
</g>
<defs>
<clipPath id="clip0_685_6345">
<rect width="256" height="256" fill="white"/>
</clipPath>
</defs>
</svg>
